<?xml version="1.0" encoding="UTF-8"?>
<svg version="1.1" xmlns="http://www.w3.org/2000/svg" width="48" height="48">
<path d="M0 0 C15.84 0 31.68 0 48 0 C48 15.84 48 31.68 48 48 C32.16 48 16.32 48 0 48 C0 32.16 0 16.32 0 0 Z " fill="#1F0B40" transform="translate(0,0)"/>
<path d="M0 0 C2.88437779 1.29299694 4.87219421 2.65941363 7 5 C6.01 5.99 5.02 6.98 4 8 C4 6.68 4 5.36 4 4 C3.34 4 2.68 4 2 4 C1.06380187 7.15506142 0.8942877 9.96586502 0.9375 13.25 C0.94652344 14.14203125 0.95554688 15.0340625 0.96484375 15.953125 C0.97644531 16.62859375 0.98804688 17.3040625 1 18 C1.66 18 2.32 18 3 18 C3.495 16.515 3.495 16.515 4 15 C4.495 18.96 4.495 18.96 5 23 C0.25 22.125 0.25 22.125 -2 21 C-2 20.34 -2 19.68 -2 19 C-3.32 19 -4.64 19 -6 19 C-6 20.258125 -6 21.51625 -6 22.8125 C-6 25.20833333 -6 27.60416667 -6 30 C-6.66 30 -7.32 30 -8 30 C-7.67 31.98 -7.34 33.96 -7 36 C-17.56 36 -28.12 36 -39 36 C-39 29.4 -39 22.8 -39 16 C-34.545 15.505 -34.545 15.505 -30 15 C-29.67 14.01 -29.34 13.02 -29 12 C-29.33 12.66 -29.66 13.32 -30 14 C-30.99 13.67 -31.98 13.34 -33 13 C-32.2628641 11.70094902 -31.50969444 10.41098878 -30.75 9.125 C-30.33234375 8.40570313 -29.9146875 7.68640625 -29.484375 6.9453125 C-27.77082111 4.69965503 -26.60334761 4.04787924 -24 3 C-21.7734375 2.82055664 -21.7734375 2.82055664 -19.375 2.91015625 C-18.50359375 2.93013672 -17.6321875 2.95011719 -16.734375 2.97070312 C-14.91132317 3.03190558 -13.08839817 3.09701064 -11.265625 3.16601562 C-10.39421875 3.18470703 -9.5228125 3.20339844 -8.625 3.22265625 C-7.83351563 3.25109619 -7.04203125 3.27953613 -6.2265625 3.30883789 C-3.44967331 2.92366631 -2.08956399 1.81495092 0 0 Z " fill="#2F1553" transform="translate(39,12)"/>
<path d="M0 0 C2.88437779 1.29299694 4.87219421 2.65941363 7 5 C6.01 5.99 5.02 6.98 4 8 C4 6.68 4 5.36 4 4 C3.34 4 2.68 4 2 4 C1.06380187 7.15506142 0.8942877 9.96586502 0.9375 13.25 C0.94652344 14.14203125 0.95554688 15.0340625 0.96484375 15.953125 C0.97644531 16.62859375 0.98804688 17.3040625 1 18 C1.66 18 2.32 18 3 18 C3.495 16.515 3.495 16.515 4 15 C4.495 18.96 4.495 18.96 5 23 C0.25 22.125 0.25 22.125 -2 21 C-2.495 19.515 -2.495 19.515 -3 18 C-4.32 18 -5.64 18 -7 18 C-7 19.65 -7 21.3 -7 23 C-8.32 23 -9.64 23 -11 23 C-11 20.03 -11 17.06 -11 14 C-11.99 14 -12.98 14 -14 14 C-13.67 13.01 -13.34 12.02 -13 11 C-10.03 11 -7.06 11 -4 11 C-4 10.34 -4 9.68 -4 9 C-3.01 9 -2.02 9 -1 9 C-1.495 7.02 -1.495 7.02 -2 5 C-2.33 5.66 -2.66 6.32 -3 7 C-3.78375 6.79375 -4.5675 6.5875 -5.375 6.375 C-6.674375 6.189375 -6.674375 6.189375 -8 6 C-8.66 6.66 -9.32 7.32 -10 8 C-12.125 8.625 -12.125 8.625 -14 9 C-14.12375 9.639375 -14.2475 10.27875 -14.375 10.9375 C-14.58125 11.618125 -14.7875 12.29875 -15 13 C-15.99 13.495 -15.99 13.495 -17 14 C-17.65772428 17.02934491 -17.65772428 17.02934491 -18 20 C-17.34 20.33 -16.68 20.66 -16 21 C-16 21.99 -16 22.98 -16 24 C-20 24 -20 24 -21.8125 22.375 C-23.38563147 19.22873707 -22.83607904 17.34431617 -22 14 C-22.66 14 -23.32 14 -24 14 C-24.33 14.99 -24.66 15.98 -25 17 C-27.0625 17.6875 -27.0625 17.6875 -29 18 C-29 19.98 -29 21.96 -29 24 C-30.32 24 -31.64 24 -33 24 C-33 22.35 -33 20.7 -33 19 C-34.98 19 -36.96 19 -39 19 C-39 18.01 -39 17.02 -39 16 C-34.545 15.505 -34.545 15.505 -30 15 C-29.67 14.01 -29.34 13.02 -29 12 C-29.33 12.66 -29.66 13.32 -30 14 C-30.99 13.67 -31.98 13.34 -33 13 C-32.2628641 11.70094902 -31.50969444 10.41098878 -30.75 9.125 C-30.33234375 8.40570313 -29.9146875 7.68640625 -29.484375 6.9453125 C-27.77082111 4.69965503 -26.60334761 4.04787924 -24 3 C-21.7734375 2.82055664 -21.7734375 2.82055664 -19.375 2.91015625 C-18.50359375 2.93013672 -17.6321875 2.95011719 -16.734375 2.97070312 C-14.91132317 3.03190558 -13.08839817 3.09701064 -11.265625 3.16601562 C-10.39421875 3.18470703 -9.5228125 3.20339844 -8.625 3.22265625 C-7.83351563 3.25109619 -7.04203125 3.27953613 -6.2265625 3.30883789 C-3.44967331 2.92366631 -2.08956399 1.81495092 0 0 Z " fill="#3E78A9" transform="translate(39,12)"/>
<path d="M0 0 C0.99 0 1.98 0 3 0 C3 8.91 3 17.82 3 27 C-2.28 27 -7.56 27 -13 27 C-13.33 25.02 -13.66 23.04 -14 21 C-13.34 20.34 -12.68 19.68 -12 19 C-12.33 18.01 -12.66 17.02 -13 16 C-13.03920815 14.00038436 -13.04443347 11.99950636 -13 10 C-12.01 9.67 -11.02 9.34 -10 9 C-9.34 9.33 -8.68 9.66 -8 10 C-8 10.66 -8 11.32 -8 12 C-5.69 12.66 -3.38 13.32 -1 14 C-1.66 12.35 -2.32 10.7 -3 9 C-3.33 9 -3.66 9 -4 9 C-4 7.35 -4 5.7 -4 4 C-2.35 3.67 -0.7 3.34 1 3 C0.34 2.34 -0.32 1.68 -1 1 C-0.67 0.67 -0.34 0.34 0 0 Z " fill="#20083D" transform="translate(45,21)"/>
<path d="M0 0 C0.66 0.66 1.32 1.32 2 2 C0.87687034 5.36938898 -0.53174093 6.53174093 -3 9 C-3 8.34 -3 7.68 -3 7 C-3.763125 7.165 -4.52625 7.33 -5.3125 7.5 C-8 8 -8 8 -11 8 C-11.33 8.66 -11.66 9.32 -12 10 C-11.01 10 -10.02 10 -9 10 C-8.67 12.97 -8.34 15.94 -8 19 C-7.34 18.67 -6.68 18.34 -6 18 C-5.34444881 15.47266765 -5.34444881 15.47266765 -5 13 C-2.525 13.495 -2.525 13.495 0 14 C-1.32 14.33 -2.64 14.66 -4 15 C-4 16.258125 -4 17.51625 -4 18.8125 C-4 21.20833333 -4 23.60416667 -4 26 C-4.66 26 -5.32 26 -6 26 C-5.67 27.98 -5.34 29.96 -5 32 C-5.66 32 -6.32 32 -7 32 C-7.33 30.02 -7.66 28.04 -8 26 C-8.99 26.33 -9.98 26.66 -11 27 C-11.99 26.34 -12.98 25.68 -14 25 C-14 26.32 -14 27.64 -14 29 C-14.99 29 -15.98 29 -17 29 C-17.33 29.66 -17.66 30.32 -18 31 C-20.475 30.01 -20.475 30.01 -23 29 C-23 27.35 -23 25.7 -23 24 C-21.02 23.34 -19.04 22.68 -17 22 C-17 21.34 -17 20.68 -17 20 C-16.01 20 -15.02 20 -14 20 C-14 19.01 -14 18.02 -14 17 C-14.99 16.67 -15.98 16.34 -17 16 C-16.52431821 11.00534117 -15.1835207 7.89096975 -12 4 C-9.375 2.6875 -9.375 2.6875 -7 2 C-6.34 1.67 -5.68 1.34 -5 1 C-2.875 1.9375 -2.875 1.9375 -1 3 C-0.67 2.01 -0.34 1.02 0 0 Z " fill="#2B0B4A" transform="translate(37,16)"/>
<path d="M0 0 C3.96 0 7.92 0 12 0 C12.125 6.625 12.125 6.625 11 10 C11.66 10.33 12.32 10.66 13 11 C12.67 11.99 12.34 12.98 12 14 C10.41870971 14.22331199 8.83478911 14.42804644 7.25 14.625 C6.36828125 14.74101562 5.4865625 14.85703125 4.578125 14.9765625 C1.77140122 15.00207817 0.36615134 14.44843844 -2 13 C-1.34 12.67 -0.68 12.34 0 12 C0.84947478 7.28927624 1.17156754 4.68627018 0 0 Z " fill="#20063C" transform="translate(25,0)"/>
<path d="M0 0 C1.98 0 3.96 0 6 0 C6 1.65 6 3.3 6 5 C6.66 5.33 7.32 5.66 8 6 C8 6.99 8 7.98 8 9 C9.65 8.67 11.3 8.34 13 8 C13.125 11.375 13.125 11.375 13 15 C11 17 11 17 8.3984375 17.1953125 C5.59895833 17.13020833 2.79947917 17.06510417 0 17 C0 11.39 0 5.78 0 0 Z " fill="#190736" transform="translate(0,31)"/>
<path d="M0 0 C2 1.75 2 1.75 4 4 C4 5.32 4 6.64 4 8 C3.34 8 2.68 8 2 8 C2 8.66 2 9.32 2 10 C1.34 10 0.68 10 0 10 C-0.33 11.32 -0.66 12.64 -1 14 C-2.32 14.33 -3.64 14.66 -5 15 C-5 16.98 -5 18.96 -5 21 C-6.32 21 -7.64 21 -9 21 C-9 19.35 -9 17.7 -9 16 C-10.98 16 -12.96 16 -15 16 C-15 15.01 -15 14.02 -15 13 C-10.545 12.505 -10.545 12.505 -6 12 C-5.67 11.01 -5.34 10.02 -5 9 C-5.33 9.66 -5.66 10.32 -6 11 C-6.99 10.67 -7.98 10.34 -9 10 C-8.2628641 8.70094902 -7.50969444 7.41098878 -6.75 6.125 C-6.33234375 5.40570312 -5.9146875 4.68640625 -5.484375 3.9453125 C-3.84071924 1.79125838 -2.48432665 1.00859415 0 0 Z " fill="#194B86" transform="translate(15,15)"/>
<path d="M0 0 C0.66 0 1.32 0 2 0 C2 4.29 2 8.58 2 13 C-1.3 13 -4.6 13 -8 13 C-8.25 6.375 -8.25 6.375 -6 3 C-6.33 2.34 -6.66 1.68 -7 1 C-6.01 1.33 -5.02 1.66 -4 2 C-3.3125 4.0625 -3.3125 4.0625 -3 6 C-2.34 6 -1.68 6 -1 6 C-1.020625 5.195625 -1.04125 4.39125 -1.0625 3.5625 C-1 1 -1 1 0 0 Z " fill="#150531" transform="translate(46,35)"/>
<path d="M0 0 C0.99 0.33 1.98 0.66 3 1 C3 1.99 3 2.98 3 4 C3.66 4.33 4.32 4.66 5 5 C5.33 4.34 5.66 3.68 6 3 C6.99 3.66 7.98 4.32 9 5 C8.34 6.98 7.68 8.96 7 11 C7.66 10.01 8.32 9.02 9 8 C9.66 8 10.32 8 11 8 C10.67 9.65 10.34 11.3 10 13 C6.46315341 13.80842208 3.72159473 14 0 14 C0 9.38 0 4.76 0 0 Z " fill="#231953" transform="translate(0,14)"/>
<path d="M0 0 C1.65 0 3.3 0 5 0 C4.67 1.32 4.34 2.64 4 4 C4.66 4 5.32 4 6 4 C6.08948558 8.47427924 5.85743651 12.60563789 5 17 C5.66 17.33 6.32 17.66 7 18 C7 18.99 7 19.98 7 21 C3 21 3 21 1.1875 19.375 C-0.38563147 16.22873707 0.16392096 14.34431617 1 11 C0.34 10.67 -0.32 10.34 -1 10 C-0.34 10 0.32 10 1 10 C1 9.34 1 8.68 1 8 C1.66 8 2.32 8 3 8 C2.01 5.36 1.02 2.72 0 0 Z " fill="#4891BD" transform="translate(16,15)"/>
<path d="M0 0 C0.8971875 0.5259375 0.8971875 0.5259375 1.8125 1.0625 C4.10813214 2.33304698 4.10813214 2.33304698 7 1 C7 3.31 7 5.62 7 8 C1.39 8 -4.22 8 -10 8 C-9.67 7.34 -9.34 6.68 -9 6 C-7.35 6.33 -5.7 6.66 -4 7 C-3.67 6.01 -3.34 5.02 -3 4 C-2.34 4 -1.68 4 -1 4 C-0.67 2.68 -0.34 1.36 0 0 Z " fill="#20073D" transform="translate(23,40)"/>
<path d="M0 0 C2 1.75 2 1.75 4 4 C4 5.32 4 6.64 4 8 C3.34 8 2.68 8 2 8 C2 8.66 2 9.32 2 10 C0.35 10.66 -1.3 11.32 -3 12 C-3 9.69 -3 7.38 -3 5 C-3.99 4.67 -4.98 4.34 -6 4 C-3.94766315 1.7522025 -2.99332739 0.9977758 0 0 Z " fill="#2A6AA1" transform="translate(15,15)"/>
<path d="M0 0 C0.66 0.66 1.32 1.32 2 2 C0.87687034 5.36938898 -0.53174093 6.53174093 -3 9 C-3 8.34 -3 7.68 -3 7 C-3.763125 7.165 -4.52625 7.33 -5.3125 7.5 C-8 8 -8 8 -11 8 C-11.66 8.66 -12.32 9.32 -13 10 C-13.33 9.01 -13.66 8.02 -14 7 C-11.75470565 3.63205848 -10.68407814 3.28942735 -7 2 C-6.34 1.67 -5.68 1.34 -5 1 C-2.875 1.9375 -2.875 1.9375 -1 3 C-0.67 2.01 -0.34 1.02 0 0 Z " fill="#244B8C" transform="translate(37,16)"/>
<path d="M0 0 C1.32 0.33 2.64 0.66 4 1 C4 3.97 4 6.94 4 10 C5.65 10.33 7.3 10.66 9 11 C6.03312999 12.64826111 3.34373475 13.44271087 0 14 C0 13.34 0 12.68 0 12 C-0.66 11.67 -1.32 11.34 -2 11 C-1.855625 10.484375 -1.71125 9.96875 -1.5625 9.4375 C-0.84190099 6.31490429 -0.42733561 3.17449308 0 0 Z " fill="#28134D" transform="translate(37,0)"/>
<path d="M0 0 C0.99 0 1.98 0 3 0 C5.23551759 3.35327639 5.17283528 3.90743657 4.625 7.6875 C4.51414062 8.49574219 4.40328125 9.30398438 4.2890625 10.13671875 C4.19367187 10.75160156 4.09828125 11.36648438 4 12 C2.68 12.33 1.36 12.66 0 13 C-0.73080266 11.02253397 -1.39421747 9.01927511 -2 7 C-1.67 6.34 -1.34 5.68 -1 5 C-1.66 4.67 -2.32 4.34 -3 4 C-1.6875 2 -1.6875 2 0 0 Z " fill="#370D51" transform="translate(22,0)"/>
<path d="M0 0 C0.66 0 1.32 0 2 0 C2.33 0.99 2.66 1.98 3 3 C3.66 2.67 4.32 2.34 5 2 C5 2.66 5 3.32 5 4 C5.66 4.33 6.32 4.66 7 5 C6.01 5.33 5.02 5.66 4 6 C4.66 6.66 5.32 7.32 6 8 C5 9 5 9 2.4375 9.0625 C1.633125 9.041875 0.82875 9.02125 0 9 C0 10.65 0 12.3 0 14 C-2 12 -2 12 -2.25 8.125 C-2.18064077 4.94603525 -1.80254921 2.70382382 0 0 Z " fill="#240743" transform="translate(41,16)"/>
<path d="M0 0 C3.63 0.33 7.26 0.66 11 1 C8 5 8 5 5.8125 5.75 C5.214375 5.8325 4.61625 5.915 4 6 C3.67 7.32 3.34 8.64 3 10 C2.34 10 1.68 10 1 10 C1 8.02 1 6.04 1 4 C0.34 4 -0.32 4 -1 4 C-0.67 2.68 -0.34 1.36 0 0 Z " fill="#3975A8" transform="translate(21,15)"/>
<path d="M0 0 C2.88437779 1.29299694 4.87219421 2.65941363 7 5 C6.01 5.99 5.02 6.98 4 8 C4 6.68 4 5.36 4 4 C3.34 4 2.68 4 2 4 C1.87625 4.639375 1.7525 5.27875 1.625 5.9375 C1.41875 6.618125 1.2125 7.29875 1 8 C0.01 8.495 0.01 8.495 -1 9 C-1.33 7.68 -1.66 6.36 -2 5 C-2.33 5.66 -2.66 6.32 -3 7 C-4.9375 6.6875 -4.9375 6.6875 -7 6 C-7.33 5.01 -7.66 4.02 -8 3 C-7.236875 2.87625 -6.47375 2.7525 -5.6875 2.625 C-2.79732864 2.11897208 -2.79732864 2.11897208 0 0 Z " fill="#4EA3C8" transform="translate(39,12)"/>
<path d="M0 0 C2.64 0 5.28 0 8 0 C8.33 0.99 8.66 1.98 9 3 C7.35 2.67 5.7 2.34 4 2 C4 2.66 4 3.32 4 4 C4.66 4.33 5.32 4.66 6 5 C5.67 5.66 5.34 6.32 5 7 C5.27942455 8.67654729 5.60828247 10.34608154 6 12 C4.68 12 3.36 12 2 12 C2 9.03 2 6.06 2 3 C1.01 3 0.02 3 -1 3 C-0.67 2.01 -0.34 1.02 0 0 Z " fill="#4C97C1" transform="translate(26,23)"/>
<path d="M0 0 C1.67542976 0.28604898 3.34385343 0.61781233 5 1 C3.68 1.33 2.36 1.66 1 2 C1 3.258125 1 4.51625 1 5.8125 C1 8.20833333 1 10.60416667 1 13 C0.34 13 -0.32 13 -1 13 C-0.67 14.98 -0.34 16.96 0 19 C-0.66 19 -1.32 19 -2 19 C-2.12375 17.906875 -2.2475 16.81375 -2.375 15.6875 C-2.75464801 11.92618198 -2.75464801 11.92618198 -5 9 C-4.01 8.67 -3.02 8.34 -2 8 C-1.855625 6.865625 -1.71125 5.73125 -1.5625 4.5625 C-1 1 -1 1 0 0 Z " fill="#27124C" transform="translate(32,29)"/>
<path d="M0 0 C0.99 0 1.98 0 3 0 C3.93423645 3.01031744 4.04449911 3.86650268 3 7 C3.99 6.67 4.98 6.34 6 6 C4.5361389 10.39158329 2.02168662 10.87947433 -2 13 C-1.25 8.25 -1.25 8.25 1 6 C1 5.34 1 4.68 1 4 C0.67 4.66 0.34 5.32 0 6 C-0.99 5.67 -1.98 5.34 -3 5 C-1.6875 2.5 -1.6875 2.5 0 0 Z " fill="#479DC5" transform="translate(9,20)"/>
<path d="M0 0 C2.97 0.495 2.97 0.495 6 1 C6.07347656 1.95712891 6.07347656 1.95712891 6.1484375 2.93359375 C6.22320313 3.75988281 6.29796875 4.58617187 6.375 5.4375 C6.44460937 6.26121094 6.51421875 7.08492187 6.5859375 7.93359375 C6.72257812 8.61550781 6.85921875 9.29742187 7 10 C7.66 10.33 8.32 10.66 9 11 C8 13 8 13 6 14 C6 14.99 6 15.98 6 17 C4.5 15.75 4.5 15.75 3 14 C3 12.68 3 11.36 3 10 C3.66 10 4.32 10 5 10 C5 7.36 5 4.72 5 2 C3.02 2.33 1.04 2.66 -1 3 C-0.67 2.01 -0.34 1.02 0 0 Z " fill="#351E63" transform="translate(22,25)"/>
<path d="M0 0 C0.33 0 0.66 0 1 0 C1.33 2.64 1.66 5.28 2 8 C-2.75 7.125 -2.75 7.125 -5 6 C-4.67 5.34 -4.34 4.68 -4 4 C-1.9375 3.375 -1.9375 3.375 0 3 C0 2.01 0 1.02 0 0 Z " fill="#315B92" transform="translate(42,27)"/>
<path d="M0 0 C1.65 0 3.3 0 5 0 C4.67 1.32 4.34 2.64 4 4 C4.66 4 5.32 4 6 4 C6 5.98 6 7.96 6 10 C5.67 9.34 5.34 8.68 5 8 C4.34 8 3.68 8 3 8 C2.01 5.36 1.02 2.72 0 0 Z " fill="#8AE6F5" transform="translate(16,15)"/>
<path d="M0 0 C0.66 0.66 1.32 1.32 2 2 C1.67 2.99 1.34 3.98 1 5 C-0.8125 5.8125 -0.8125 5.8125 -3 6 C-5.25 5.0625 -5.25 5.0625 -7 4 C-6.34 3.01 -5.68 2.02 -5 1 C-3.68 1.66 -2.36 2.32 -1 3 C-0.67 2.01 -0.34 1.02 0 0 Z " fill="#214183" transform="translate(37,16)"/>
<path d="M0 0 C0.33 0 0.66 0 1 0 C1 4.33333333 1 8.66666667 1 13 C0.01 13.33 -0.98 13.66 -2 14 C-2.33 11.69 -2.66 9.38 -3 7 C-2.01 7 -1.02 7 0 7 C0 4.69 0 2.38 0 0 Z " fill="#271B54" transform="translate(44,28)"/>
<path d="M0 0 C2 2 2 2 2 6 C-1.26954202 5.43628586 -2.82575883 4.50037734 -5 2 C-4.360625 1.855625 -3.72125 1.71125 -3.0625 1.5625 C-1.02454854 1.18992819 -1.02454854 1.18992819 0 0 Z " fill="#224185" transform="translate(17,17)"/>
<path d="M0 0 C0.33 0.99 0.66 1.98 1 3 C1.66 3 2.32 3 3 3 C3 4.65 3 6.3 3 8 C1.02 8.99 1.02 8.99 -1 10 C-0.67 6.7 -0.34 3.4 0 0 Z " fill="#40195C" transform="translate(37,0)"/>
<path d="M0 0 C0.66 0 1.32 0 2 0 C2.33 0.99 2.66 1.98 3 3 C3.66 2.67 4.32 2.34 5 2 C5 2.66 5 3.32 5 4 C5.66 4.33 6.32 4.66 7 5 C4.03 5 1.06 5 -2 5 C-1.34 3.35 -0.68 1.7 0 0 Z " fill="#25306E" transform="translate(41,16)"/>
<path d="M0 0 C4.75 0.875 4.75 0.875 7 2 C7 2.99 7 3.98 7 5 C5.68 5 4.36 5 3 5 C1.25 2.5 1.25 2.5 0 0 Z " fill="#3168A2" transform="translate(16,31)"/>
<path d="M0 0 C-3.06117568 2.62386487 -3.73173127 3 -8 3 C-8 2.01 -8 1.02 -8 0 C-4.71303767 -0.79953138 -3.28976808 -1.09658936 0 0 Z " fill="#61B1D1" transform="translate(8,28)"/>
<path d="M0 0 C2.67927341 4.01891012 2.15601248 6.24161923 2 11 C1.01 11 0.02 11 -1 11 C-0.67 7.37 -0.34 3.74 0 0 Z " fill="#3C1D65" transform="translate(13,0)"/>
<path d="M0 0 C0.99 0 1.98 0 3 0 C2.67 1.65 2.34 3.3 2 5 C-1 5 -1 5 -3 4 C-1.6875 2 -1.6875 2 0 0 Z " fill="#3D1A58" transform="translate(22,0)"/>
<path d="M0 0 C1.65 0 3.3 0 5 0 C4.1875 1.9375 4.1875 1.9375 3 4 C2.01 4.33 1.02 4.66 0 5 C0 3.35 0 1.7 0 0 Z " fill="#190636" transform="translate(17,0)"/>
<path d="M0 0 C0.66 0.66 1.32 1.32 2 2 C1.67 2.66 1.34 3.32 1 4 C-1.64 4 -4.28 4 -7 4 C-6.67 3.34 -6.34 2.68 -6 2 C-4.35 2.33 -2.7 2.66 -1 3 C-0.67 2.01 -0.34 1.02 0 0 Z " fill="#170332" transform="translate(20,44)"/>
<path d="M0 0 C0.99 0 1.98 0 3 0 C3 1.98 3 3.96 3 6 C2.01 5.67 1.02 5.34 0 5 C0 3.35 0 1.7 0 0 Z " fill="#461D61" transform="translate(16,41)"/>
<path d="M0 0 C0.99 0.33 1.98 0.66 3 1 C3 1.99 3 2.98 3 4 C3.33 4.66 3.66 5.32 4 6 C3.67 6.66 3.34 7.32 3 8 C2.34 7.67 1.68 7.34 1 7 C0.59270772 4.67843403 0.25561323 2.3431213 0 0 Z " fill="#3C1554" transform="translate(0,14)"/>
</svg>
