<svg width="16" height="20" viewBox="0 0 16 20" fill="none" xmlns="http://www.w3.org/2000/svg">
<path d="M4 18H12V15C12 13.9 11.6083 12.9583 10.825 12.175C10.0417 11.3917 9.1 11 8 11C6.9 11 5.95833 11.3917 5.175 12.175C4.39167 12.9583 4 13.9 4 15V18ZM8 9C9.1 9 10.0417 8.60833 10.825 7.825C11.6083 7.04167 12 6.1 12 5V2H4V5C4 6.1 4.39167 7.04167 5.175 7.825C5.95833 8.60833 6.9 9 8 9ZM0 20V18H2V15C2 13.9833 2.2375 13.0292 2.7125 12.1375C3.1875 11.2458 3.85 10.5333 4.7 10C3.85 9.46667 3.1875 8.75417 2.7125 7.8625C2.2375 6.97083 2 6.01667 2 5V2H0V0H16V2H14V5C14 6.01667 13.7625 6.97083 13.2875 7.8625C12.8125 8.75417 12.15 9.46667 11.3 10C12.15 10.5333 12.8125 11.2458 13.2875 12.1375C13.7625 13.0292 14 13.9833 14 15V18H16V20H0Z" fill="#2563EB"/>
</svg>
